<svg width="26" height="15" viewBox="0 0 26 15" fill="none" xmlns="http://www.w3.org/2000/svg">
<rect x="0.185059" y="-0.00231934" width="24.9537" height="14.2593" rx="7.12963" fill="#051724"/>
<path d="M6.42356 9.72664C7.85914 9.72664 9.02291 8.56288 9.02291 7.1273C9.02291 5.69172 7.85914 4.52795 6.42356 4.52795C4.98798 4.52795 3.82422 5.69172 3.82422 7.1273C3.82422 8.56288 4.98798 9.72664 6.42356 9.72664Z" fill="#FFF194"/>
<path d="M6.42355 11.1971C6.21932 11.1971 6.05222 11.0449 6.05222 10.8406V10.8109C6.05222 10.6067 6.21932 10.4396 6.42355 10.4396C6.62779 10.4396 6.79489 10.6067 6.79489 10.8109C6.79489 11.0152 6.62779 11.1971 6.42355 11.1971ZM9.07488 10.15C8.97833 10.15 8.8855 10.1128 8.81123 10.0423L8.76296 9.99399C8.61814 9.84917 8.61814 9.61523 8.76296 9.47041C8.90778 9.32559 9.14172 9.32559 9.28654 9.47041L9.33482 9.51868C9.47964 9.6635 9.47964 9.89744 9.33482 10.0423C9.26426 10.1128 9.17143 10.15 9.07488 10.15ZM3.77222 10.15C3.67567 10.15 3.58284 10.1128 3.50857 10.0423C3.36375 9.89744 3.36375 9.6635 3.50857 9.51868L3.55685 9.47041C3.70167 9.32559 3.93561 9.32559 4.08043 9.47041C4.22525 9.61523 4.22525 9.84917 4.08043 9.99399L4.03215 10.0423C3.9616 10.1128 3.86505 10.15 3.77222 10.15ZM10.1369 7.49862H10.1072C9.90296 7.49862 9.73586 7.33152 9.73586 7.12729C9.73586 6.92305 9.90296 6.75595 10.1072 6.75595C10.3114 6.75595 10.4934 6.92305 10.4934 7.12729C10.4934 7.33152 10.3411 7.49862 10.1369 7.49862ZM2.73991 7.49862H2.7102C2.50597 7.49862 2.33887 7.33152 2.33887 7.12729C2.33887 6.92305 2.50597 6.75595 2.7102 6.75595C2.91444 6.75595 3.09639 6.92305 3.09639 7.12729C3.09639 7.33152 2.94414 7.49862 2.73991 7.49862ZM9.02661 4.89556C8.93006 4.89556 8.83723 4.85843 8.76296 4.78788C8.61814 4.64306 8.61814 4.40911 8.76296 4.26429L8.81123 4.21602C8.95605 4.0712 9.19 4.0712 9.33482 4.21602C9.47964 4.36084 9.47964 4.59478 9.33482 4.7396L9.28654 4.78788C9.21599 4.85843 9.12316 4.89556 9.02661 4.89556ZM3.82049 4.89556C3.72395 4.89556 3.63111 4.85843 3.55685 4.78788L3.50857 4.73589C3.36375 4.59107 3.36375 4.35713 3.50857 4.21231C3.65339 4.06749 3.88733 4.06749 4.03215 4.21231L4.08043 4.26058C4.22525 4.4054 4.22525 4.63934 4.08043 4.78416C4.00987 4.85843 3.91333 4.89556 3.82049 4.89556ZM6.42355 3.80013C6.21932 3.80013 6.05222 3.64788 6.05222 3.44364V3.41394C6.05222 3.2097 6.21932 3.0426 6.42355 3.0426C6.62779 3.0426 6.79489 3.2097 6.79489 3.41394C6.79489 3.61817 6.62779 3.80013 6.42355 3.80013Z" fill="#FFF194"/>
<rect x="12.6619" y="1.78009" width="10.6944" height="10.6944" rx="5.34722" fill="white"/>
</svg>
