<svg width="37" height="37" viewBox="0 0 37 37" fill="none" xmlns="http://www.w3.org/2000/svg">
<path d="M18.35 0.575043L18.3535 18.5573L25.2383 1.94521L18.36 18.5601L31.0779 5.84713L18.3649 18.565L34.9798 11.6867L18.3677 18.5716L36.35 18.575L18.3677 18.5785L34.9798 25.4634L18.3649 18.5851L31.0779 31.3029L18.36 18.59L25.2383 35.2049L18.3535 18.5928L18.35 36.575L18.3465 18.5928L11.4616 35.2049L18.34 18.59L5.62206 31.3029L18.335 18.5851L1.72014 25.4634L18.3323 18.5785L0.349976 18.575L18.3323 18.5716L1.72014 11.6867L18.335 18.565L5.62206 5.84713L18.34 18.5601L11.4616 1.94521L18.3465 18.5573L18.35 0.575043Z" fill="#C8FEC7" stroke="#C8FEC7" stroke-width="1.8"/>
</svg>
