<svg width="36" height="37" viewBox="0 0 36 37" fill="none" xmlns="http://www.w3.org/2000/svg">
<path d="M18.006 0.501709L18.0094 18.3082L24.827 1.85848L18.0159 18.311L30.6094 5.72227L18.0208 18.3159L34.4732 11.5048L18.0235 18.3223L35.83 18.3258L18.0235 18.3292L34.4732 25.1468L18.0208 18.3357L30.6094 30.9293L18.0159 18.3406L24.827 34.7931L18.0094 18.3433L18.006 36.1499L18.0025 18.3433L11.1849 34.7931L17.996 18.3406L5.40244 30.9293L17.9912 18.3357L1.53866 25.1468L17.9884 18.3292L0.181885 18.3258L17.9884 18.3223L1.53866 11.5048L17.9912 18.3159L5.40244 5.72227L17.996 18.311L11.1849 1.85848L18.0025 18.3082L18.006 0.501709Z" fill="#64C661" stroke="#64C661" stroke-width="1.78241"/>
</svg>
