<svg width="99" height="99" viewBox="0 0 99 99" fill="none" xmlns="http://www.w3.org/2000/svg">
<path d="M98.7482 49.3437C98.7482 76.4146 76.8029 98.3599 49.732 98.3599C22.6611 98.3599 0.71582 76.4146 0.71582 49.3437C0.71582 22.2728 22.6611 0.327515 49.732 0.327515C76.8029 0.327515 98.7482 22.2728 98.7482 49.3437ZM15.4207 49.3437C15.4207 68.2934 30.7824 83.6551 49.732 83.6551C68.6817 83.6551 84.0434 68.2934 84.0434 49.3437C84.0434 30.3941 68.6817 15.0324 49.732 15.0324C30.7824 15.0324 15.4207 30.3941 15.4207 49.3437Z" fill="white"/>
<path d="M20.2713 78.8045C17.4 81.6758 12.6917 81.7027 10.2817 78.4346C4.33715 70.3732 0.968171 60.6293 0.729426 50.4985C0.432568 37.9019 4.99805 25.6747 13.4781 16.3552C21.9582 7.03573 33.7015 1.33983 46.2702 0.449919C58.8389 -0.439995 71.2675 3.54443 80.9761 11.5761C90.6847 19.6077 96.9275 31.0696 98.4085 43.5825C99.8895 56.0953 96.4949 68.6979 88.9295 78.774C81.3641 88.8502 70.209 95.626 57.7799 97.6947C47.7838 99.3585 37.5812 97.8751 28.5487 93.5463C24.8869 91.7914 24.0311 87.1615 26.3135 83.803V83.803C28.5959 80.4446 33.155 79.6583 36.922 81.1742C42.7251 83.5095 49.1032 84.2318 55.3655 83.1894C64.0659 81.7413 71.8745 76.9982 77.1703 69.9449C82.4661 62.8916 84.8422 54.0698 83.8055 45.3108C82.7688 36.5519 78.3989 28.5285 71.6029 22.9064C64.8069 17.2842 56.1068 14.4951 47.3087 15.1181C38.5106 15.741 30.2903 19.7281 24.3543 26.2518C18.4182 32.7754 15.2224 41.3344 15.4302 50.1521C15.5798 56.4988 17.4844 62.6285 20.8657 67.8913C23.0607 71.3075 23.1426 75.9332 20.2713 78.8045V78.8045Z" fill="url(#paint0_linear_216_409)"/>
<path d="M37.5634 55.5475C40.9322 55.5475 42.7609 53.045 42.7609 49.3714V49.3394C42.7609 47.27 42.2316 45.9867 41.4134 45.1846C40.5632 44.3344 39.6007 43.8692 37.9645 43.8692C35.3978 43.8692 33.4889 45.4733 33.4889 47.9598V47.9919C33.4889 50.1896 35.077 51.5371 37.2587 51.5371C38.2532 51.5371 39.0553 51.1681 39.6328 50.6227C39.4884 52.0664 38.7987 52.9648 37.5153 52.9648C36.617 52.9648 35.8791 52.676 35.1091 52.0664L33.6493 54.216C34.6759 55.0181 35.8951 55.5475 37.5634 55.5475ZM38.1089 49.3073C37.1303 49.3073 36.5047 48.6817 36.5047 47.8314V47.7994C36.5047 46.9331 37.0982 46.2914 38.0768 46.2914C39.0553 46.2914 39.6809 46.9492 39.6809 47.8154V47.8475C39.6809 48.6656 39.0874 49.3073 38.1089 49.3073ZM43.3779 55.3229H46.8108L51.7677 46.4358V44.0937H43.1213V46.7085H48.3188L43.3779 55.3229ZM54.8839 49.981C56.6164 49.981 57.7875 48.6175 57.7875 46.9652V46.9331C57.7875 45.2969 56.6485 43.9333 54.9 43.9333C53.1354 43.9333 51.9964 45.2969 51.9964 46.9492V46.9812C51.9964 48.6335 53.1514 49.981 54.8839 49.981ZM53.2316 55.3229H55.3973L64.0598 44.0937H61.8941L53.2316 55.3229ZM62.3914 55.4833C64.1239 55.4833 65.295 54.1037 65.295 52.4675V52.4354C65.295 50.7831 64.156 49.4356 62.4075 49.4356C60.6429 49.4356 59.5039 50.7992 59.5039 52.4514V52.4835C59.5039 54.1198 60.6589 55.4833 62.3914 55.4833ZM54.9 48.2164C54.3706 48.2164 53.9535 47.6871 53.9535 46.9652V46.9331C53.9535 46.2273 54.3225 45.6979 54.8839 45.6979C55.4294 45.6979 55.8304 46.2433 55.8304 46.9492V46.9812C55.8304 47.6871 55.4454 48.2164 54.9 48.2164ZM62.4075 53.7187C61.8781 53.7187 61.461 53.1733 61.461 52.4675V52.4354C61.461 51.7135 61.8139 51.2002 62.3914 51.2002C62.9369 51.2002 63.3379 51.7296 63.3379 52.4514V52.4835C63.3379 53.1894 62.9529 53.7187 62.4075 53.7187Z" fill="#171717"/>
<defs>
<linearGradient id="paint0_linear_216_409" x1="0.71582" y1="49.3437" x2="98.7482" y2="49.3437" gradientUnits="userSpaceOnUse">
<stop stop-color="#FA709A"/>
<stop offset="1" stop-color="#FEE140"/>
</linearGradient>
</defs>
</svg>
