<svg width="297" height="24" viewBox="0 0 297 24" fill="none" xmlns="http://www.w3.org/2000/svg">
<rect x="0.225" y="0.475" width="22.95" height="22.95" rx="4.275" stroke="white" stroke-width="0.45"/>
<g clip-path="url(#clip0_202_913)">
<path d="M16.2633 6.36084C14.8953 6.40278 14.8957 8.3709 16.2633 8.41248C17.6313 8.37054 17.631 6.40242 16.2633 6.36084ZM11.7 7.54848C9.27536 7.54848 7.30994 9.51912 7.30994 11.95C7.54124 17.7887 15.8594 17.7871 16.0898 11.95C16.09 9.51912 14.1244 7.54848 11.7 7.54848ZM11.7 14.8072C10.1262 14.8072 8.85038 13.5279 8.85038 11.95C9.0005 8.16012 14.4001 8.16102 14.5497 11.95C14.5495 13.5281 13.2737 14.8072 11.7 14.8072Z" fill="white"/>
<path d="M20.1974 8.42523C20.1341 5.42517 18.2254 3.51537 15.2246 3.45255C14.504 3.38307 8.89631 3.38181 8.17523 3.45255C5.17517 3.51591 3.26537 5.42463 3.20255 8.42541C3.13307 9.14487 3.13163 14.7544 3.20255 15.4747C3.25853 18.4651 5.18453 20.3916 8.17523 20.4474C8.89577 20.5176 14.5035 20.5176 15.2246 20.4474C16.1345 20.4058 16.756 20.2613 17.2998 20.05C19.2055 19.2888 20.1366 17.5955 20.1974 15.4746C20.2669 14.754 20.2682 9.14631 20.1974 8.42523ZM15.1544 18.9086C14.4454 18.9763 8.95499 18.9774 8.24543 18.9086C7.41203 18.8706 6.95933 18.7313 6.65801 18.6143C4.05719 17.4079 4.86359 14.9684 4.74101 11.6199C4.74371 10.8421 4.73939 9.27339 4.74119 8.49561C4.84505 6.17685 5.93711 5.10333 8.24543 4.99137C8.95535 4.92369 14.4443 4.92261 15.1544 4.99137C17.4739 5.09523 18.5463 6.18729 18.6586 8.49543C18.7045 9.04965 18.7378 12.0751 18.6586 13.6062C18.7441 16.4818 18.6131 18.7399 15.1544 18.9086Z" fill="white"/>
</g>
<rect x="54.945" y="0.475" width="22.95" height="22.95" rx="4.275" stroke="white" stroke-width="0.45"/>
<g clip-path="url(#clip1_202_913)">
<path d="M63.4199 20.95C65.0759 20.95 66.4199 19.606 66.4199 17.95V14.95H63.4199C61.7639 14.95 60.4199 16.294 60.4199 17.95C60.4199 19.606 61.7639 20.95 63.4199 20.95Z" fill="white"/>
<path d="M60.4199 11.95C60.4199 10.294 61.7639 8.95001 63.4199 8.95001H66.4199V14.95H63.4199C61.7639 14.95 60.4199 13.606 60.4199 11.95Z" fill="white"/>
<path d="M60.4199 5.95001C60.4199 4.29401 61.7639 2.95001 63.4199 2.95001H66.4199V8.95001H63.4199C61.7639 8.95001 60.4199 7.60601 60.4199 5.95001Z" fill="white"/>
<path d="M66.4199 2.95001H69.4199C71.0759 2.95001 72.4199 4.29401 72.4199 5.95001C72.4199 7.60601 71.0759 8.95001 69.4199 8.95001H66.4199V2.95001Z" fill="white"/>
<path d="M72.4199 11.95C72.4199 13.606 71.0759 14.95 69.4199 14.95C67.7639 14.95 66.4199 13.606 66.4199 11.95C66.4199 10.294 67.7639 8.95001 69.4199 8.95001C71.0759 8.95001 72.4199 10.294 72.4199 11.95Z" fill="white"/>
</g>
<rect x="109.665" y="0.475" width="22.95" height="22.95" rx="4.275" stroke="white" stroke-width="0.45"/>
<g clip-path="url(#clip2_202_913)">
<path d="M128.426 3.40237C125.796 3.39499 116.096 3.40741 113.854 3.40237C113.156 3.40237 112.59 3.95119 112.59 4.62709V19.2757C112.59 19.9517 113.156 20.5 113.854 20.5H128.426C129.124 20.5 129.69 19.9517 129.69 19.2755V4.62709C129.69 3.95119 129.124 3.40237 128.426 3.40237Z" fill="white"/>
<path d="M121.762 17.7109C121.762 17.7109 121.762 13.4129 121.762 13.4127C121.737 12.6229 122.209 11.8858 123.159 11.8526C124.084 11.8526 124.455 12.5584 124.455 13.5932V17.7107H127.013V13.2973C127.013 10.933 125.751 9.83287 124.068 9.83287C122.687 9.83287 122.081 10.6042 121.744 11.1296L121.762 10.0136H119.203C119.236 10.7357 119.203 17.7109 119.203 17.7109H121.762ZM117.787 14.373V10.0134H115.228V17.7107H117.787C117.786 16.9025 117.788 15.1699 117.787 14.373ZM116.508 8.96275C117.4 8.96275 117.955 8.37163 117.955 7.63309C117.948 5.85162 115.075 5.87142 115.077 7.63291C115.075 8.37721 115.646 8.97193 116.508 8.96275Z" fill="black"/>
</g>
<rect x="164.385" y="0.475" width="22.95" height="22.95" rx="4.275" stroke="white" stroke-width="0.45"/>
<g clip-path="url(#clip3_202_913)">
<path d="M184.216 6.75198C183.601 7.02522 182.94 7.209 182.246 7.29198C182.955 6.86772 183.498 6.19614 183.754 5.39532C183.091 5.78808 182.358 6.07338 181.576 6.22764C180.951 5.5611 180.06 5.14458 179.074 5.14458C176.894 5.11542 175.219 7.24464 175.734 9.35388C172.885 9.21114 170.359 7.84602 168.668 5.77116C167.744 7.27668 168.268 9.42966 169.729 10.3487C169.167 10.3307 168.638 10.1765 168.176 9.91998C168.155 11.5949 169.343 13.009 170.926 13.3245C170.44 13.4602 169.879 13.4815 169.378 13.3835C169.814 14.7454 171.08 15.7372 172.581 15.7648C171.224 16.8485 169.325 17.4136 167.504 17.1846C174.827 21.6913 182.922 15.7869 182.504 8.52642C183.174 8.04258 183.756 7.43904 184.216 6.75198Z" fill="white"/>
</g>
<rect x="219.105" y="0.475" width="22.95" height="22.95" rx="4.275" stroke="white" stroke-width="0.45"/>
<path d="M230.576 4.45001C229.092 4.45001 227.642 4.88988 226.409 5.71399C225.176 6.5381 224.214 7.70944 223.647 9.07989C223.079 10.4503 222.931 11.9583 223.22 13.4132C223.509 14.868 224.224 16.2044 225.273 17.2533C226.321 18.3022 227.658 19.0165 229.113 19.3059C230.567 19.5953 232.075 19.4468 233.446 18.8791C234.816 18.3115 235.988 17.3502 236.812 16.1168C237.636 14.8834 238.076 13.4334 238.076 11.95C238.076 10.9651 237.882 9.98977 237.505 9.07979C237.128 8.16981 236.576 7.34298 235.879 6.64653C235.183 5.95007 234.356 5.39763 233.446 5.02075C232.536 4.64387 231.561 4.44993 230.576 4.45001V4.45001ZM232.96 15.8144C232.932 15.8844 232.89 15.9475 232.835 15.9997C232.781 16.0518 232.716 16.0917 232.645 16.1167C232.573 16.1417 232.498 16.1511 232.423 16.1444C232.347 16.1378 232.275 16.1151 232.209 16.078L230.173 14.496L228.866 15.7015C228.836 15.7239 228.8 15.7383 228.763 15.7434C228.726 15.7485 228.688 15.7442 228.652 15.7307L228.903 13.4894L228.911 13.4957L228.916 13.4515C228.916 13.4515 232.58 10.1158 232.729 9.97373C232.88 9.83198 232.83 9.80123 232.83 9.80123C232.839 9.62833 232.559 9.80123 232.559 9.80123L227.705 12.9243L225.683 12.2358C225.683 12.2358 225.373 12.1244 225.343 11.8795C225.313 11.6365 225.693 11.5045 225.693 11.5045L233.731 8.31138C233.731 8.31138 234.392 8.01699 234.392 8.50451L232.96 15.8144Z" fill="white"/>
<rect x="273.825" y="0.475" width="22.95" height="22.95" rx="4.275" stroke="white" stroke-width="0.45"/>
<g clip-path="url(#clip4_202_913)">
<path d="M285.863 11.95C285.863 14.5864 283.844 16.7313 281.363 16.7313C278.881 16.7313 276.863 14.5864 276.863 11.95C276.863 9.31364 278.881 7.16876 281.363 7.16876C283.844 7.16876 285.863 9.31364 285.863 11.95ZM289.238 7.45001C288.838 7.45001 288.084 7.64413 287.527 8.94422C287.179 9.75632 286.988 10.8238 286.988 11.95C286.988 13.0762 287.179 14.1437 287.527 14.9558C288.084 16.2559 288.838 16.45 289.238 16.45C289.637 16.45 290.391 16.2559 290.948 14.9558C291.296 14.1437 291.488 13.0762 291.488 11.95C291.488 10.8238 291.296 9.75632 290.948 8.94422C290.391 7.64413 289.637 7.45001 289.238 7.45001ZM293.175 7.45001C293.026 7.45002 292.883 7.50929 292.777 7.61477C292.672 7.72026 292.613 7.86333 292.613 8.01251V15.8875C292.613 16.0367 292.672 16.1798 292.777 16.2853C292.883 16.3907 293.026 16.45 293.175 16.45C293.324 16.45 293.467 16.3907 293.573 16.2853C293.678 16.1798 293.738 16.0367 293.738 15.8875V8.01251C293.738 7.86333 293.678 7.72026 293.573 7.61477C293.467 7.50929 293.324 7.45002 293.175 7.45001V7.45001Z" fill="white"/>
</g>
<defs>
<clipPath id="clip0_202_913">
<rect width="18" height="18" fill="white" transform="translate(2.69995 2.95001)"/>
</clipPath>
<clipPath id="clip1_202_913">
<rect width="18" height="18" fill="white" transform="translate(57.42 2.95001)"/>
</clipPath>
<clipPath id="clip2_202_913">
<rect width="18" height="18" fill="white" transform="translate(112.14 2.95001)"/>
</clipPath>
<clipPath id="clip3_202_913">
<rect width="18" height="18" fill="white" transform="translate(166.86 2.95001)"/>
</clipPath>
<clipPath id="clip4_202_913">
<rect width="18" height="18" fill="white" transform="translate(276.3 2.95001)"/>
</clipPath>
</defs>
</svg>
