<svg width="295" height="24" viewBox="0 0 295 24" fill="none" xmlns="http://www.w3.org/2000/svg">
<rect x="0.783104" y="0.896995" width="22.7257" height="22.7257" rx="4.23322" stroke="#E6E6E6" stroke-width="0.445602"/>
<g clip-path="url(#clip0_203_243)">
<path d="M16.6647 6.72528C15.3101 6.76681 15.3104 8.71569 16.6647 8.75687C18.0193 8.71534 18.019 6.76645 16.6647 6.72528ZM12.1459 7.90131C9.74504 7.90131 7.79883 9.85269 7.79883 12.2598C8.02787 18.0414 16.2647 18.0398 16.4929 12.2598C16.4931 9.85269 14.5467 7.90131 12.1459 7.90131ZM12.1459 15.089C10.5876 15.089 9.32421 13.8223 9.32421 12.2598C9.47286 8.50698 14.8197 8.50787 14.9678 12.2598C14.9677 13.8225 13.7043 15.089 12.1459 15.089Z" fill="#171717"/>
<path d="M20.5601 8.76954C20.4974 5.79881 18.6073 3.90767 15.6359 3.84547C14.9224 3.77666 9.36945 3.77542 8.65541 3.84547C5.68468 3.90821 3.79354 5.79827 3.73134 8.76972C3.66254 9.48215 3.66111 15.0368 3.73134 15.7502C3.78677 18.7113 5.69394 20.619 8.65541 20.6742C9.36891 20.7438 14.9218 20.7438 15.6359 20.6742C16.5369 20.6331 17.1523 20.4899 17.6908 20.2807C19.5778 19.5269 20.4999 17.8502 20.5601 15.75C20.6289 15.0365 20.6302 9.48358 20.5601 8.76954ZM15.5663 19.1505C14.8643 19.2175 9.42755 19.2186 8.72493 19.1505C7.89967 19.1129 7.4514 18.9749 7.15302 18.859C4.57762 17.6645 5.37614 15.2488 5.25476 11.933C5.25743 11.1628 5.25316 9.60942 5.25494 8.83924C5.35778 6.54314 6.43917 5.48011 8.72493 5.36925C9.42791 5.30223 14.8632 5.30116 15.5663 5.36925C17.8632 5.47209 18.9251 6.55348 19.0363 8.83906C19.0818 9.38786 19.1148 12.3837 19.0363 13.8998C19.121 16.7474 18.9912 18.9835 15.5663 19.1505Z" fill="#171717"/>
</g>
<rect x="54.9489" y="0.896995" width="22.7257" height="22.7257" rx="4.23322" stroke="#E6E6E6" stroke-width="0.445602"/>
<g clip-path="url(#clip1_203_243)">
<path d="M63.341 21.1719C64.9809 21.1719 66.3117 19.841 66.3117 18.2012V15.2305H63.341C61.7012 15.2305 60.3704 16.5614 60.3704 18.2012C60.3704 19.841 61.7012 21.1719 63.341 21.1719Z" fill="#171717"/>
<path d="M60.3704 12.2598C60.3704 10.62 61.7012 9.28912 63.341 9.28912H66.3117V15.2305H63.341C61.7012 15.2305 60.3704 13.8996 60.3704 12.2598Z" fill="#171717"/>
<path d="M60.3704 6.31846C60.3704 4.67864 61.7012 3.34778 63.341 3.34778H66.3117V9.28914H63.341C61.7012 9.28914 60.3704 7.95827 60.3704 6.31846Z" fill="#171717"/>
<path d="M66.3118 3.34778H69.2824C70.9223 3.34778 72.2531 4.67864 72.2531 6.31846C72.2531 7.95827 70.9223 9.28914 69.2824 9.28914H66.3118V3.34778Z" fill="#171717"/>
<path d="M72.2531 12.2598C72.2531 13.8996 70.9223 15.2305 69.2824 15.2305C67.6426 15.2305 66.3118 13.8996 66.3118 12.2598C66.3118 10.62 67.6426 9.28912 69.2824 9.28912C70.9223 9.28912 72.2531 10.62 72.2531 12.2598Z" fill="#171717"/>
</g>
<rect x="109.115" y="0.896995" width="22.7257" height="22.7257" rx="4.23322" stroke="#E6E6E6" stroke-width="0.445602"/>
<g clip-path="url(#clip2_203_243)">
<path d="M127.693 3.79572C125.088 3.78841 115.483 3.80071 113.263 3.79572C112.572 3.79572 112.011 4.33917 112.011 5.00847V19.5139C112.011 20.1833 112.572 20.7263 113.263 20.7263H127.693C128.384 20.7263 128.944 20.1833 128.944 19.5137V5.00847C128.944 4.33917 128.384 3.79572 127.693 3.79572Z" fill="#171717"/>
<path d="M121.093 17.9644C121.093 17.9644 121.093 13.7084 121.093 13.7082C121.068 12.9261 121.536 12.1962 122.476 12.1634C123.393 12.1634 123.76 12.8623 123.76 13.887V17.9643H126.293V13.594C126.293 11.2528 125.044 10.1634 123.377 10.1634C122.01 10.1634 121.41 10.9271 121.076 11.4474L121.093 10.3423H118.559C118.592 11.0574 118.559 17.9644 118.559 17.9644H121.093ZM117.157 14.6591V10.3421H114.623V17.9643H117.157C117.157 17.164 117.158 15.4482 117.157 14.6591ZM115.89 9.30175C116.774 9.30175 117.324 8.71641 117.324 7.98509C117.317 6.22104 114.471 6.24065 114.474 7.98491C114.472 8.72194 115.037 9.31084 115.89 9.30175Z" fill="white"/>
</g>
<rect x="163.28" y="0.896995" width="22.7257" height="22.7257" rx="4.23322" stroke="#E6E6E6" stroke-width="0.445602"/>
<path d="M182.917 7.11261C182.308 7.38318 181.654 7.56517 180.967 7.64734C181.669 7.22722 182.206 6.56221 182.46 5.76921C181.804 6.15813 181.077 6.44065 180.303 6.5934C179.684 5.93337 178.802 5.52092 177.826 5.52092C175.667 5.49205 174.008 7.60046 174.519 9.68908C171.698 9.54774 169.196 8.19596 167.521 6.14138C166.607 7.63219 167.126 9.76412 168.572 10.6742C168.016 10.6564 167.492 10.5036 167.034 10.2497C167.013 11.9082 168.19 13.3084 169.758 13.6209C169.276 13.7553 168.721 13.7763 168.225 13.6794C168.657 15.0279 169.91 16.01 171.396 16.0373C170.053 17.1105 168.173 17.67 166.369 17.4433C173.621 21.9059 181.637 16.0592 181.223 8.86971C181.886 8.3906 182.462 7.79296 182.917 7.11261Z" fill="#171717"/>
<rect x="217.446" y="0.896995" width="22.7257" height="22.7257" rx="4.23322" stroke="#E6E6E6" stroke-width="0.445602"/>
<path d="M228.805 4.83313C227.336 4.83313 225.9 5.2687 224.679 6.08475C223.457 6.90081 222.505 8.0607 221.943 9.41775C221.381 10.7748 221.234 12.2681 221.521 13.7087C221.807 15.1493 222.515 16.4727 223.553 17.5113C224.592 18.5499 225.915 19.2573 227.356 19.5438C228.796 19.8304 230.29 19.6833 231.647 19.1212C233.004 18.5591 234.164 17.6072 234.98 16.3859C235.796 15.1646 236.231 13.7287 236.231 12.2598C236.231 11.2845 236.039 10.3187 235.666 9.41766C235.293 8.51657 234.746 7.69783 234.056 7.00818C233.367 6.31853 232.548 5.77149 231.647 5.39829C230.746 5.02509 229.78 4.83305 228.805 4.83313V4.83313ZM231.166 16.0864C231.138 16.1557 231.096 16.2183 231.042 16.2699C230.988 16.3216 230.924 16.3611 230.853 16.3858C230.783 16.4105 230.708 16.4199 230.633 16.4133C230.559 16.4067 230.487 16.3842 230.422 16.3475L228.406 14.7809L227.112 15.9747C227.082 15.9968 227.047 16.0111 227.01 16.0162C226.973 16.0212 226.935 16.0169 226.9 16.0036L227.148 13.7841L227.156 13.7904L227.161 13.7466C227.161 13.7466 230.789 10.4436 230.937 10.3029C231.086 10.1625 231.037 10.132 231.037 10.132C231.046 9.96084 230.769 10.132 230.769 10.132L225.962 13.2246L223.96 12.5428C223.96 12.5428 223.652 12.4325 223.623 12.19C223.593 11.9494 223.97 11.8187 223.97 11.8187L231.929 8.65676C231.929 8.65676 232.583 8.36525 232.583 8.848L231.166 16.0864Z" fill="black"/>
<rect x="271.612" y="0.896995" width="22.7257" height="22.7257" rx="4.23322" stroke="#E6E6E6" stroke-width="0.445602"/>
<g clip-path="url(#clip3_203_243)">
<path d="M283.532 12.2598C283.532 14.8705 281.533 16.9944 279.076 16.9944C276.619 16.9944 274.62 14.8705 274.62 12.2598C274.62 9.64924 276.619 7.52533 279.076 7.52533C281.533 7.52533 283.532 9.64924 283.532 12.2598ZM286.874 7.80383C286.478 7.80383 285.732 7.99605 285.18 9.28344C284.835 10.0876 284.646 11.1447 284.646 12.2598C284.646 13.375 284.835 14.4321 285.18 15.2363C285.732 16.5237 286.478 16.7159 286.874 16.7159C287.269 16.7159 288.015 16.5236 288.567 15.2363C288.912 14.4321 289.102 13.375 289.102 12.2598C289.102 11.1447 288.912 10.0876 288.567 9.28344C288.015 7.99605 287.269 7.80383 286.874 7.80383ZM290.773 7.80383C290.625 7.80384 290.483 7.86252 290.379 7.96698C290.274 8.07144 290.216 8.21311 290.216 8.36083V16.1589C290.216 16.3066 290.274 16.4483 290.379 16.5527C290.483 16.6572 290.625 16.7159 290.773 16.7159C290.92 16.7159 291.062 16.6572 291.167 16.5527C291.271 16.4483 291.33 16.3066 291.33 16.1589V8.36083C291.33 8.21311 291.271 8.07144 291.167 7.96698C291.062 7.86252 290.92 7.80384 290.773 7.80383V7.80383Z" fill="black"/>
</g>
<defs>
<clipPath id="clip0_203_243">
<rect width="17.8241" height="17.8241" fill="white" transform="translate(3.23389 3.34778)"/>
</clipPath>
<clipPath id="clip1_203_243">
<rect width="17.8241" height="17.8241" fill="white" transform="translate(57.3997 3.34778)"/>
</clipPath>
<clipPath id="clip2_203_243">
<rect width="17.8241" height="17.8241" fill="white" transform="translate(111.566 3.34778)"/>
</clipPath>
<clipPath id="clip3_203_243">
<rect width="17.8241" height="17.8241" fill="white" transform="translate(274.062 3.34778)"/>
</clipPath>
</defs>
</svg>
